<?xml version="1.0" encoding="UTF-8"?>
<!DOCTYPE svg PUBLIC "-//W3C//DTD SVG 1.1//EN" "http://www.w3.org/Graphics/SVG/1.1/DTD/svg11.dtd">
<svg xmlns="http://www.w3.org/2000/svg" xmlns:xlink="http://www.w3.org/1999/xlink" version="1.1" width="643px" height="202px" viewBox="-0.5 -0.5 643 202"><defs><clipPath id="mx-clip-81-160-70-40-0"><rect x="81" y="160" width="70" height="40"/></clipPath><clipPath id="mx-clip-151-160-70-40-0"><rect x="151" y="160" width="70" height="40"/></clipPath><clipPath id="mx-clip-221-160-70-40-0"><rect x="221" y="160" width="70" height="40"/></clipPath><clipPath id="mx-clip-291-160-70-40-0"><rect x="291" y="160" width="70" height="40"/></clipPath><clipPath id="mx-clip-361-160-70-40-0"><rect x="361" y="160" width="70" height="40"/></clipPath><clipPath id="mx-clip-431-160-70-40-0"><rect x="431" y="160" width="70" height="40"/></clipPath><clipPath id="mx-clip-501-160-70-40-0"><rect x="501" y="160" width="70" height="40"/></clipPath><clipPath id="mx-clip-571-160-70-40-0"><rect x="571" y="160" width="70" height="40"/></clipPath></defs><g><rect x="81" y="160" width="560" height="40" fill="rgb(255, 255, 255)" stroke="none" pointer-events="none"/><path d="M 81 160 M 641 160 M 641 200 M 81 200" fill="none" stroke="rgb(0, 0, 0)" stroke-width="2" stroke-linecap="square" stroke-miterlimit="10" pointer-events="none"/><path d="M 81 160 M 151 160 M 151 200 M 81 200" fill="none" stroke="rgb(0, 0, 0)" stroke-width="2" stroke-linecap="square" stroke-miterlimit="10" pointer-events="none"/><g fill="rgb(0, 0, 0)" font-family="Helvetica" pointer-events="none" clip-path="url(#mx-clip-81-160-70-40-0)" text-anchor="middle" font-size="15px"><text x="115.5" y="186">0</text></g><path d="M 151 160 M 221 160 M 221 200 M 151 200" fill="none" stroke="rgb(0, 0, 0)" stroke-width="2" stroke-linecap="square" stroke-miterlimit="10" pointer-events="none"/><g fill="rgb(0, 0, 0)" font-family="Helvetica" pointer-events="none" clip-path="url(#mx-clip-151-160-70-40-0)" text-anchor="middle" font-size="15px"><text x="185.5" y="186">1</text></g><path d="M 221 160 M 291 160 M 291 200 M 221 200" fill="none" stroke="rgb(0, 0, 0)" stroke-width="2" stroke-linecap="square" stroke-miterlimit="10" pointer-events="none"/><g fill="rgb(0, 0, 0)" font-family="Helvetica" pointer-events="none" clip-path="url(#mx-clip-221-160-70-40-0)" text-anchor="middle" font-size="15px"><text x="255.5" y="186">2</text></g><path d="M 291 160 M 361 160 M 361 200 M 291 200" fill="none" stroke="rgb(0, 0, 0)" stroke-width="2" stroke-linecap="square" stroke-miterlimit="10" pointer-events="none"/><g fill="rgb(0, 0, 0)" font-family="Helvetica" pointer-events="none" clip-path="url(#mx-clip-291-160-70-40-0)" text-anchor="middle" font-size="15px"><text x="325.5" y="186">3</text></g><path d="M 361 160 M 431 160 M 431 200 M 361 200" fill="none" stroke="rgb(0, 0, 0)" stroke-width="2" stroke-linecap="square" stroke-miterlimit="10" pointer-events="none"/><g fill="rgb(0, 0, 0)" font-family="Helvetica" pointer-events="none" clip-path="url(#mx-clip-361-160-70-40-0)" text-anchor="middle" font-size="15px"><text x="395.5" y="186">4</text></g><path d="M 431 160 M 501 160 M 501 200 M 431 200" fill="none" stroke="rgb(0, 0, 0)" stroke-width="2" stroke-linecap="square" stroke-miterlimit="10" pointer-events="none"/><g fill="rgb(0, 0, 0)" font-family="Helvetica" pointer-events="none" clip-path="url(#mx-clip-431-160-70-40-0)" text-anchor="middle" font-size="15px"><text x="465.5" y="186">5</text></g><path d="M 501 160 M 571 160 M 571 200 M 501 200" fill="none" stroke="rgb(0, 0, 0)" stroke-width="2" stroke-linecap="square" stroke-miterlimit="10" pointer-events="none"/><g fill="rgb(0, 0, 0)" font-family="Helvetica" pointer-events="none" clip-path="url(#mx-clip-501-160-70-40-0)" text-anchor="middle" font-size="15px"><text x="535.5" y="186">6</text></g><path d="M 571 160 M 641 160 M 641 200 M 571 200" fill="none" stroke="rgb(0, 0, 0)" stroke-width="2" stroke-linecap="square" stroke-miterlimit="10" pointer-events="none"/><g fill="rgb(0, 0, 0)" font-family="Helvetica" pointer-events="none" clip-path="url(#mx-clip-571-160-70-40-0)" text-anchor="middle" font-size="15px"><text x="605.5" y="186">7</text></g><g fill="rgb(0, 0, 0)" font-family="Helvetica" pointer-events="none" font-size="15px"><text x="1.5" y="131">Element</text></g><g fill="rgb(0, 0, 0)" font-family="Helvetica" pointer-events="none" font-size="15px"><text x="1.5" y="186">Index</text></g><rect x="81" y="60" width="560" height="100" fill="rgb(255, 255, 255)" stroke="none" pointer-events="none"/><path d="M 81 60 L 641 60 L 641 160 L 81 160 L 81 60" fill="none" stroke="rgb(0, 0, 0)" stroke-width="2" stroke-linecap="square" stroke-miterlimit="10" pointer-events="none"/><path d="M 151 60 L 151 160" fill="none" stroke="rgb(0, 0, 0)" stroke-width="2" stroke-miterlimit="10" pointer-events="none"/><path d="M 221 60 L 221 160" fill="none" stroke="rgb(0, 0, 0)" stroke-width="2" stroke-miterlimit="10" pointer-events="none"/><path d="M 291 60 L 291 160" fill="none" stroke="rgb(0, 0, 0)" stroke-width="2" stroke-miterlimit="10" pointer-events="none"/><path d="M 361 60 L 361 160" fill="none" stroke="rgb(0, 0, 0)" stroke-width="2" stroke-miterlimit="10" pointer-events="none"/><path d="M 431 60 L 431 160" fill="none" stroke="rgb(0, 0, 0)" stroke-width="2" stroke-miterlimit="10" pointer-events="none"/><path d="M 501 60 L 501 160" fill="none" stroke="rgb(0, 0, 0)" stroke-width="2" stroke-miterlimit="10" pointer-events="none"/><path d="M 571 60 L 571 160" fill="none" stroke="rgb(0, 0, 0)" stroke-width="2" stroke-miterlimit="10" pointer-events="none"/><path d="M 81 60 M 641 60 M 641 160 M 81 160" fill="none" stroke="rgb(0, 0, 0)" stroke-linecap="square" stroke-miterlimit="10" pointer-events="none"/><path d="M 81 60 M 151 60 M 151 160 M 81 160" fill="none" stroke="rgb(0, 0, 0)" stroke-linecap="square" stroke-miterlimit="10" pointer-events="none"/><path d="M 151 60 M 221 60 M 221 160 M 151 160" fill="none" stroke="rgb(0, 0, 0)" stroke-linecap="square" stroke-miterlimit="10" pointer-events="none"/><path d="M 221 60 M 291 60 M 291 160 M 221 160" fill="none" stroke="rgb(0, 0, 0)" stroke-linecap="square" stroke-miterlimit="10" pointer-events="none"/><path d="M 291 60 M 361 60 M 361 160 M 291 160" fill="none" stroke="rgb(0, 0, 0)" stroke-linecap="square" stroke-miterlimit="10" pointer-events="none"/><path d="M 361 60 M 431 60 M 431 160 M 361 160" fill="none" stroke="rgb(0, 0, 0)" stroke-linecap="square" stroke-miterlimit="10" pointer-events="none"/><path d="M 431 60 M 501 60 M 501 160 M 431 160" fill="none" stroke="rgb(0, 0, 0)" stroke-linecap="square" stroke-miterlimit="10" pointer-events="none"/><path d="M 501 60 M 571 60 M 571 160 M 501 160" fill="none" stroke="rgb(0, 0, 0)" stroke-linecap="square" stroke-miterlimit="10" pointer-events="none"/><path d="M 571 60 M 641 60 M 641 160 M 571 160" fill="none" stroke="rgb(0, 0, 0)" stroke-linecap="square" stroke-miterlimit="10" pointer-events="none"/><rect x="91" y="100" width="50" height="50" fill="rgb(255, 255, 255)" stroke="none" pointer-events="none"/><g fill="rgb(0, 0, 0)" font-family="Helvetica" pointer-events="none" text-anchor="middle" font-size="15px"><text x="115.5" y="131">30</text></g><rect x="91" y="70" width="50" height="30" fill="#d5e8d4" stroke="#82b366" pointer-events="none"/><g fill="rgb(0, 0, 0)" font-family="Helvetica" pointer-events="none" text-anchor="middle" font-size="15px"><text x="115.5" y="91">3</text></g><g fill="rgb(0, 0, 0)" font-family="Helvetica" pointer-events="none" font-size="15px"><text x="1.5" y="91">Priority</text></g><g fill="rgb(0, 0, 0)" font-family="Helvetica" pointer-events="none" text-anchor="middle" font-size="15px"><text x="396.5" y="21">Rear</text></g><rect x="161" y="100" width="50" height="50" fill="rgb(255, 255, 255)" stroke="none" pointer-events="none"/><g fill="rgb(0, 0, 0)" font-family="Helvetica" pointer-events="none" text-anchor="middle" font-size="15px"><text x="185.5" y="131">10</text></g><rect x="161" y="70" width="50" height="30" fill="#d5e8d4" stroke="#82b366" pointer-events="none"/><g fill="rgb(0, 0, 0)" font-family="Helvetica" pointer-events="none" text-anchor="middle" font-size="15px"><text x="185.5" y="91">3</text></g><rect x="231" y="100" width="50" height="50" fill="rgb(255, 255, 255)" stroke="none" pointer-events="none"/><g fill="rgb(0, 0, 0)" font-family="Helvetica" pointer-events="none" text-anchor="middle" font-size="15px"><text x="255.5" y="131">40</text></g><rect x="231" y="70" width="50" height="30" fill="#ffe6cc" stroke="#d79b00" pointer-events="none"/><g fill="rgb(0, 0, 0)" font-family="Helvetica" pointer-events="none" text-anchor="middle" font-size="15px"><text x="255.5" y="91">2</text></g><rect x="301" y="100" width="50" height="50" fill="rgb(255, 255, 255)" stroke="none" pointer-events="none"/><g fill="rgb(0, 0, 0)" font-family="Helvetica" pointer-events="none" text-anchor="middle" font-size="15px"><text x="325.5" y="131">20</text></g><rect x="301" y="70" width="50" height="30" fill="#ffe6cc" stroke="#d79b00" pointer-events="none"/><g fill="rgb(0, 0, 0)" font-family="Helvetica" pointer-events="none" text-anchor="middle" font-size="15px"><text x="325.5" y="91">2</text></g><rect x="371" y="100" width="50" height="50" fill="rgb(255, 255, 255)" stroke="none" pointer-events="none"/><g fill="rgb(0, 0, 0)" font-family="Helvetica" pointer-events="none" text-anchor="middle" font-size="15px"><text x="395.5" y="131">50</text></g><rect x="371" y="70" width="50" height="30" fill="#f8cecc" stroke="#b85450" pointer-events="none"/><g fill="rgb(0, 0, 0)" font-family="Helvetica" pointer-events="none" text-anchor="middle" font-size="15px"><text x="395.5" y="91">1</text></g><path d="M 397 30 L 397 50.76" fill="none" stroke="rgb(0, 0, 0)" stroke-width="2" stroke-miterlimit="10" pointer-events="none"/><path d="M 397 58.76 L 393 50.76 L 401 50.76 Z" fill="rgb(0, 0, 0)" stroke="rgb(0, 0, 0)" stroke-width="2" stroke-miterlimit="10" pointer-events="none"/></g></svg>